<?xml version="1.0" encoding="UTF-8"?>
<svg xmlns="http://www.w3.org/2000/svg" xmlns:xlink="http://www.w3.org/1999/xlink" width="32px" height="16px" viewBox="0 0 32 16" version="1.1">
<g id="surface1">
<path style=" stroke:none;fill-rule:nonzero;fill:rgb(0%,55.686277%,35.294119%);fill-opacity:1;" d="M -13.5 21.539062 C -13.882812 21.367188 -13.925781 20.890625 -13.671875 19.714844 C -13.515625 19.015625 -13.246094 18.5 -13.0625 18.292969 C -12.886719 18.09375 -12.644531 17.972656 -12.257812 17.96875 C -11.632812 17.96875 -11.261719 18.234375 -11.34375 18.835938 L -11.386719 19.128906 L -12.042969 19.132812 L -12 18.886719 C -11.949219 18.609375 -12.042969 18.496094 -12.265625 18.496094 C -12.4375 18.5 -12.628906 18.679688 -12.730469 18.875 C -12.816406 19.046875 -13.179688 20.480469 -13.179688 20.71875 C -13.179688 20.933594 -13.050781 21.160156 -12.847656 21.160156 C -12.398438 21.144531 -12.375 20.703125 -12.28125 20.371094 L -11.644531 20.363281 C -11.820312 21.441406 -12.554688 21.921875 -13.5 21.539062 Z M -11.28125 21.449219 C -11.472656 21.257812 -11.402344 21.132812 -11.304688 20.566406 C -11.195312 19.941406 -11.042969 19.421875 -10.867188 19.207031 C -10.492188 18.746094 -9.566406 18.710938 -9.414062 19.195312 C -9.304688 19.53125 -9.527344 20.929688 -9.78125 21.292969 C -9.945312 21.527344 -10.292969 21.683594 -10.730469 21.683594 C -11.078125 21.683594 -11.128906 21.601562 -11.28125 21.449219 Z M -10.304688 21.074219 C -10.253906 21.015625 -10.132812 20.621094 -10.046875 20.214844 C -9.882812 19.425781 -9.9375 19.28125 -10.195312 19.28125 C -10.5 19.28125 -10.558594 19.394531 -10.761719 20.378906 C -10.859375 20.855469 -10.871094 20.996094 -10.816406 21.066406 C -10.644531 21.265625 -10.398438 21.230469 -10.304688 21.074219 Z M -4.359375 21.578125 C -4.597656 21.488281 -4.707031 21.308594 -4.707031 20.996094 L -4.675781 20.726562 L -4.070312 20.726562 C -4.121094 20.964844 -4.097656 21.21875 -3.890625 21.242188 C -3.746094 21.257812 -3.652344 21.167969 -3.578125 21.054688 C -3.453125 20.863281 -3.574219 20.710938 -3.976562 20.398438 C -4.34375 20.113281 -4.421875 19.949219 -4.378906 19.582031 C -4.328125 19.101562 -3.890625 18.824219 -3.28125 18.875 C -2.839844 18.914062 -2.6875 19.023438 -2.6875 19.410156 L -2.6875 19.726562 L -3.265625 19.722656 L -3.265625 19.566406 C -3.261719 19.3125 -3.59375 19.207031 -3.738281 19.4375 C -3.847656 19.621094 -3.796875 19.699219 -3.570312 19.910156 C -3.417969 20.050781 -3.222656 20.175781 -3.136719 20.253906 C -2.921875 20.453125 -2.878906 20.726562 -3.019531 21.042969 C -3.148438 21.339844 -3.273438 21.511719 -3.546875 21.601562 C -3.746094 21.671875 -4.203125 21.632812 -4.359375 21.578125 Z M -1.132812 21.589844 C -1.40625 21.488281 -1.46875 21.175781 -1.351562 20.511719 C -1.175781 19.515625 -0.917969 19.027344 -0.5 18.910156 C -0.0078125 18.773438 0.5 18.898438 0.609375 19.183594 C 0.683594 19.378906 0.640625 19.796875 0.484375 20.480469 C 0.277344 21.378906 0.0078125 21.660156 -0.648438 21.652344 C -0.832031 21.648438 -1.050781 21.621094 -1.132812 21.589844 Z M -0.289062 21.050781 C -0.152344 20.835938 0.0859375 19.625 0.0234375 19.457031 C -0.0664062 19.214844 -0.425781 19.300781 -0.539062 19.59375 C -0.570312 19.683594 -0.65625 20.039062 -0.726562 20.382812 C -0.832031 20.894531 -0.84375 21.023438 -0.78125 21.097656 C -0.667969 21.238281 -0.394531 21.210938 -0.289062 21.050781 Z M 6.183594 20.925781 C 6.214844 20.480469 6.441406 19.570312 6.597656 19.335938 C 6.8125 19.011719 7.078125 18.828125 7.527344 18.851562 C 8.148438 18.878906 8.257812 19.070312 8.148438 19.890625 L 8.09375 20.367188 L 6.824219 20.378906 C 6.824219 20.402344 6.800781 20.539062 6.769531 20.683594 C 6.710938 21 6.773438 21.214844 6.964844 21.214844 C 7.339844 21.238281 7.378906 20.808594 7.414062 20.722656 L 8.011719 20.714844 C 8 21.15625 7.714844 21.375 7.492188 21.550781 C 7.222656 21.769531 6.632812 21.671875 6.507812 21.566406 C 6.203125 21.378906 6.171875 21.21875 6.183594 20.925781 Z M 7 19.910156 L 7.597656 19.90625 C 7.859375 19.140625 7.015625 19.074219 7 19.910156 Z M 8.445312 21.464844 C 8.289062 21.265625 8.351562 21.136719 8.53125 20.269531 C 8.75 19.234375 8.914062 18.957031 9.363281 18.894531 C 9.550781 18.871094 9.636719 18.890625 9.769531 18.988281 L 9.9375 19.113281 L 10.175781 18.070312 L 10.753906 18.0625 L 10.019531 21.589844 L 9.433594 21.59375 L 9.433594 21.519531 C 9.4375 21.410156 9.449219 21.414062 9.261719 21.542969 C 8.976562 21.738281 8.671875 21.722656 8.503906 21.53125 Z M 9.417969 21.101562 C 9.507812 21.003906 9.804688 19.832031 9.804688 19.582031 C 9.804688 19.292969 9.40625 19.273438 9.292969 19.554688 C 9.207031 19.769531 9 20.726562 8.996094 20.917969 C 8.996094 21.195312 9.257812 21.347656 9.417969 21.101562 Z M 10.878906 21.558594 C 10.679688 21.476562 10.5625 21.242188 10.566406 20.933594 C 10.570312 20.507812 10.785156 19.589844 10.949219 19.308594 C 11.148438 18.960938 11.5 18.792969 11.960938 18.824219 C 12.566406 18.871094 12.695312 19.140625 12.527344 20.003906 L 12.472656 20.390625 C 12.074219 20.390625 11.332031 20.398438 11.246094 20.394531 L 11.183594 20.824219 C 11.15625 21.550781 11.796875 21.183594 11.824219 20.691406 L 12.351562 20.683594 C 12.375 20.703125 12.351562 20.769531 12.335938 20.84375 C 12.183594 21.636719 11.457031 21.765625 10.878906 21.558594 Z M 12.003906 19.90625 C 12.078125 19.714844 12.054688 19.355469 11.875 19.308594 C 11.597656 19.234375 11.402344 19.679688 11.429688 19.902344 Z M 14.09375 21.074219 C 14.089844 20.738281 14.289062 20.425781 14.53125 20.25 C 14.628906 20.183594 14.859375 20.070312 15.054688 19.988281 C 15.539062 19.820312 15.664062 19.625 15.640625 19.433594 C 15.414062 19.09375 14.960938 19.445312 14.96875 19.714844 L 14.421875 19.710938 C 14.472656 19.515625 14.484375 19.382812 14.585938 19.253906 C 15 18.714844 16.269531 18.707031 16.28125 19.378906 C 16.136719 20.117188 15.949219 20.878906 15.863281 21.589844 L 15.261719 21.59375 C 15.234375 21.59375 15.269531 21.523438 15.269531 21.480469 C 15.269531 21.363281 15.28125 21.371094 15.078125 21.511719 C 14.515625 21.824219 14.097656 21.640625 14.09375 21.074219 Z M 15.199219 21.09375 C 15.261719 21.023438 15.367188 20.789062 15.402344 20.628906 C 15.5 20.171875 15.503906 20.183594 15.21875 20.34375 C 15.078125 20.421875 14.894531 20.5625 14.859375 20.605469 C 14.75 20.738281 14.6875 20.945312 14.734375 21.054688 C 14.808594 21.222656 15.0625 21.269531 15.199219 21.09375 Z M 18.707031 21.515625 C 18.507812 21.355469 18.5 21.035156 18.675781 20.246094 C 18.921875 19.121094 19.128906 18.980469 19.472656 18.882812 C 19.816406 18.824219 19.972656 18.855469 20.140625 19.132812 L 20.359375 18.054688 L 20.933594 18.058594 L 20.191406 21.585938 L 19.621094 21.589844 L 19.625 21.425781 C 19.414062 21.574219 19.125 21.882812 18.675781 21.515625 Z M 19.636719 21.082031 C 19.726562 20.980469 19.972656 19.800781 19.972656 19.542969 C 19.972656 19.285156 19.71875 19.199219 19.539062 19.398438 C 19.441406 19.511719 19.21875 20.597656 19.214844 20.902344 C 19.210938 21.179688 19.457031 21.285156 19.636719 21.082031 Z M 21.054688 21.53125 C 20.84375 21.410156 20.78125 21.269531 20.78125 20.921875 C 20.78125 20.628906 20.984375 19.785156 21.101562 19.484375 C 21.371094 18.722656 22.792969 18.535156 22.796875 19.433594 C 22.796875 19.605469 22.769531 19.875 22.734375 20.035156 L 22.664062 20.363281 L 21.441406 20.363281 L 21.390625 20.644531 C 21.328125 20.96875 21.390625 21.179688 21.589844 21.210938 C 21.949219 21.238281 22 20.832031 22.046875 20.683594 L 22.648438 20.6875 C 22.628906 20.964844 22.355469 21.414062 22.140625 21.535156 C 21.886719 21.675781 21.296875 21.667969 21.054688 21.53125 Z M 22.214844 19.917969 C 22.472656 18.945312 21.503906 19.316406 21.597656 19.925781 Z M 27.667969 21.539062 C 27.375 21.304688 27.28125 21.070312 27.476562 20.175781 C 27.699219 19.140625 28.222656 18.851562 28.769531 18.835938 C 29.3125 18.820312 29.679688 19.320312 29.289062 20.367188 L 28.046875 20.363281 L 27.960938 20.761719 C 27.902344 21.019531 28.019531 21.210938 28.214844 21.21875 C 28.511719 21.226562 28.582031 20.875 28.605469 20.730469 L 29.175781 20.726562 C 29.1875 21.023438 28.992188 21.332031 28.777344 21.488281 C 28.507812 21.683594 27.9375 21.757812 27.667969 21.539062 Z M 28.214844 19.910156 L 28.800781 19.917969 C 29.042969 18.824219 28.046875 19.433594 28.214844 19.910156 Z M 29.765625 21.527344 C 29.480469 21.371094 29.453125 21.125 29.632812 20.285156 C 29.855469 19.234375 30.132812 18.957031 30.613281 18.878906 C 31.140625 18.792969 31.492188 18.992188 31.480469 19.402344 L 31.433594 19.828125 L 30.835938 19.84375 L 30.886719 19.59375 C 30.941406 19.324219 30.714844 19.234375 30.542969 19.390625 C 30.425781 19.496094 30.226562 20.167969 30.144531 20.789062 C 30.113281 21.046875 30.160156 21.167969 30.246094 21.199219 C 30.585938 21.257812 30.664062 20.789062 30.695312 20.578125 L 31.253906 20.566406 C 31.210938 21.042969 30.96875 21.390625 30.675781 21.578125 C 30.457031 21.714844 29.988281 21.652344 29.765625 21.527344 Z M 31.808594 21.632812 C 31.460938 21.582031 31.429688 21.449219 31.683594 20.265625 C 31.78125 19.828125 31.910156 19.398438 31.894531 19.394531 L 31.679688 19.394531 L 31.738281 18.941406 L 32.011719 18.9375 L 32.144531 18.21875 L 32.75 18.21875 L 32.574219 18.921875 L 32.867188 18.917969 L 32.785156 19.386719 L 32.488281 19.390625 C 32.242188 20.894531 31.875 21.199219 32.390625 21.15625 L 32.308594 21.574219 C 32.167969 21.648438 32.011719 21.660156 31.808594 21.632812 Z M 35.503906 21.5625 C 35.324219 21.484375 35.230469 21.285156 35.230469 21.066406 C 35.230469 20.800781 35.511719 19.5625 35.613281 19.371094 C 35.855469 18.894531 36.382812 18.734375 36.851562 18.957031 C 37.082031 19.125 37.183594 19.230469 37.082031 19.847656 L 36.53125 19.84375 C 36.699219 19.253906 36.21875 19.109375 36.0625 19.71875 C 36.03125 19.851562 35.832031 20.621094 35.828125 20.90625 C 35.828125 21.289062 36.300781 21.371094 36.316406 20.582031 L 36.957031 20.574219 C 36.894531 21.34375 36.308594 21.957031 35.503906 21.5625 Z M 38.457031 21.507812 C 38.296875 21.328125 38.320312 21.035156 38.457031 20.359375 C 38.683594 19.210938 38.929688 18.933594 39.382812 18.871094 C 39.679688 18.84375 39.6875 18.898438 39.894531 19.128906 L 40.105469 18.046875 L 40.734375 18.050781 L 40 21.589844 L 39.40625 21.597656 L 39.417969 21.414062 C 39.171875 21.632812 39.066406 21.664062 38.78125 21.671875 C 38.664062 21.671875 38.515625 21.574219 38.457031 21.507812 Z M 39.410156 21.109375 C 39.550781 20.953125 39.84375 19.59375 39.761719 19.464844 C 39.675781 19.320312 39.492188 19.316406 39.371094 19.453125 C 39.269531 19.566406 38.945312 20.566406 38.941406 20.863281 C 38.96875 21.25 39.261719 21.265625 39.410156 21.109375 Z M 40.582031 21.476562 C 40.464844 21.34375 40.4375 21.066406 40.566406 20.695312 C 40.667969 20.398438 40.894531 20.246094 41.417969 20.019531 C 41.890625 19.816406 42.109375 19.59375 41.984375 19.4375 C 41.539062 19.164062 41.390625 19.53125 41.339844 19.738281 L 40.800781 19.726562 C 40.785156 19.699219 40.835938 19.546875 40.90625 19.40625 C 41.125 18.964844 41.660156 18.742188 42.261719 18.910156 C 42.660156 19.023438 42.617188 19.054688 42.363281 20.582031 L 42.195312 21.613281 L 41.636719 21.613281 L 41.640625 21.433594 C 41.347656 21.582031 40.949219 21.839844 40.582031 21.476562 Z M 41.609375 21.109375 C 41.703125 20.96875 41.878906 20.277344 41.835938 20.234375 C 41.796875 20.195312 41.183594 20.628906 41.148438 20.71875 C 41.097656 20.847656 41.101562 21.128906 41.148438 21.175781 C 41.304688 21.25 41.53125 21.21875 41.609375 21.109375 Z M 42.894531 21.5625 C 42.691406 21.367188 42.707031 21.117188 42.871094 20.304688 C 43.050781 19.417969 43.179688 19.128906 43.425781 18.976562 C 43.84375 18.742188 44.175781 18.894531 44.320312 19.121094 L 44.511719 18.0625 L 45.128906 18.058594 C 45.097656 18.15625 44.371094 21.539062 44.371094 21.601562 L 43.8125 21.597656 L 43.835938 21.390625 C 43.851562 21.292969 43.765625 21.410156 43.605469 21.546875 C 43.414062 21.710938 43.085938 21.675781 42.894531 21.5625 Z M 43.8125 21.097656 C 43.929688 20.964844 44.113281 20.304688 44.167969 19.8125 C 44.1875 19.59375 44.183594 19.472656 44.113281 19.414062 C 43.777344 19.230469 43.640625 19.480469 43.46875 20.347656 C 43.371094 20.828125 43.347656 21.046875 43.394531 21.140625 C 43.53125 21.289062 43.734375 21.183594 43.8125 21.097656 Z M -9.289062 21.582031 L -8.738281 18.925781 L -8.148438 18.925781 L -8.160156 19.140625 C -7.804688 18.867188 -7.429688 18.707031 -7.007812 19.144531 C -6.796875 18.890625 -6.402344 18.796875 -6.128906 18.894531 C -5.832031 19.011719 -5.820312 19.128906 -6.023438 20.082031 L -6.328125 21.558594 L -6.894531 21.554688 L -6.648438 20.449219 C -6.394531 19.515625 -6.457031 19.289062 -6.730469 19.320312 C -7.007812 19.355469 -7.15625 19.636719 -7.472656 21.222656 L -7.539062 21.558594 L -8.097656 21.5625 C -8.097656 21.515625 -7.996094 21.046875 -7.90625 20.617188 C -7.65625 19.449219 -7.660156 19.480469 -7.753906 19.398438 C -7.878906 19.292969 -8.109375 19.289062 -8.230469 19.457031 C -8.289062 19.539062 -8.390625 19.851562 -8.453125 20.15625 C -8.550781 20.625 -8.632812 21.109375 -8.730469 21.578125 Z M -5.246094 18.902344 L -4.652344 18.914062 L -5.179688 21.566406 L -5.796875 21.566406 Z M -2.679688 21.574219 L -2.101562 18.9375 L -1.519531 18.9375 L -2.082031 21.574219 Z M 1.183594 18.929688 L 1.792969 18.9375 C 1.839844 18.941406 1.792969 19.117188 1.792969 19.128906 C 1.921875 18.890625 2.355469 18.761719 2.625 18.902344 C 2.863281 19.03125 2.855469 19.179688 2.640625 20.355469 L 2.410156 21.578125 L 1.820312 21.582031 L 2.007812 20.566406 C 2.234375 19.617188 2.238281 19.386719 2.027344 19.363281 C 1.851562 19.34375 1.675781 19.445312 1.417969 20.554688 L 1.242188 21.582031 L 0.652344 21.585938 Z M 3.941406 21.609375 L 4.636719 18.085938 L 6.445312 18.082031 L 6.367188 18.519531 L 5.164062 18.523438 L 4.96875 19.464844 L 6.085938 19.484375 L 6.011719 19.960938 L 4.867188 19.957031 L 4.535156 21.589844 Z M 12.683594 21.597656 L 13.199219 18.9375 L 13.769531 18.933594 L 13.730469 19.316406 C 13.871094 19.167969 14.078125 18.867188 14.414062 18.894531 L 14.308594 19.59375 C 13.75 19.644531 13.59375 19.816406 13.496094 20.261719 L 13.292969 21.589844 Z M 16.34375 21.589844 L 17.082031 18.074219 L 17.699219 18.078125 L 16.96875 21.589844 Z M 23.894531 21.574219 L 24.621094 18.027344 L 26.460938 18.007812 L 26.351562 18.535156 L 25.175781 18.550781 L 25.007812 19.484375 L 26.085938 19.484375 L 26.003906 19.992188 L 24.894531 19.988281 L 24.675781 21.070312 L 25.800781 21.074219 L 25.714844 21.570312 Z M 26.144531 21.519531 L 26.871094 18.027344 L 27.464844 18.039062 L 26.738281 21.53125 Z M 32.570312 21.597656 L 33.097656 18.917969 L 33.6875 18.914062 C 33.539062 19.882812 33.597656 18.984375 34.273438 18.929688 L 34.148438 19.621094 C 33.816406 19.621094 33.523438 19.742188 33.375 20.46875 L 33.203125 21.59375 Z M 34.621094 18.925781 L 35.203125 18.929688 L 34.640625 21.550781 L 34.074219 21.542969 Z M 37.1875 21.574219 L 37.695312 18.949219 L 38.300781 18.957031 L 37.746094 21.582031 Z M -5.144531 18.597656 L -5.046875 17.996094 L -4.460938 17.996094 L -4.605469 18.59375 Z M -1.921875 18.027344 L -1.351562 18.035156 L -1.492188 18.601562 L -2.050781 18.589844 Z M 0.152344 17.964844 L 0.835938 17.960938 L 0.046875 18.609375 L -0.429688 18.609375 Z M 34.691406 18.601562 L 34.78125 18.054688 L 35.390625 18.058594 L 35.300781 18.601562 Z M 37.929688 18.074219 L 38.484375 18.070312 L 38.378906 18.574219 L 37.792969 18.574219 Z M 5.066406 15.945312 C 3.828125 15.820312 2.824219 15.367188 1.953125 14.542969 C -0.015625 12.675781 -0.53125 9.492188 0.570312 6.007812 C 1.328125 3.605469 2.957031 1.644531 5.007812 0.644531 C 9.507812 -1.335938 13.03125 1.539062 13.664062 5.222656 C 13.683594 5.203125 13.691406 5.097656 13.703125 5.039062 C 13.71875 4.953125 13.921875 3.847656 14.152344 2.585938 L 14.574219 0.292969 L 32 0.292969 C 31.730469 1.625 31.503906 2.785156 31.261719 3.972656 L 26.230469 4.003906 L 25.855469 6.035156 L 30.824219 6.078125 L 30.261719 9.816406 L 25.167969 9.816406 L 24.746094 12.132812 L 29.765625 12.128906 L 28.992188 15.921875 L 20.222656 15.9375 L 21.304688 9.875 L 16.652344 9.875 L 15.441406 15.828125 L 11.742188 15.8125 C 11.726562 15.796875 12.402344 12.0625 12.453125 11.90625 C 12.273438 12.144531 11.402344 13.289062 11.015625 13.710938 C 9.71875 15.085938 8.34375 15.785156 6.621094 15.949219 C 5.921875 16.015625 5.742188 16.015625 5.066406 15.945312 Z M 7.140625 15.457031 C 9.207031 15.117188 11.074219 13.601562 12.203125 11.347656 C 12.378906 11.003906 12.535156 10.664062 12.558594 10.589844 L 12.597656 10.460938 L 9.730469 10.460938 L 9.421875 10.902344 C 8.976562 11.53125 8.414062 12.046875 7.90625 12.292969 C 6.292969 13.070312 4.910156 12.921875 3.921875 11.867188 C 3.121094 11.003906 2.851562 9.921875 3.042969 8.328125 C 3.148438 7.441406 3.242188 7.046875 3.507812 6.382812 C 3.917969 5.363281 4.902344 4.15625 5.65625 3.753906 C 6.15625 3.484375 7.011719 3.273438 7.597656 3.273438 C 8.484375 3.273438 9.117188 3.535156 9.707031 4.144531 C 10.121094 4.570312 10.410156 5.070312 10.605469 5.695312 L 10.734375 6.105469 L 13.351562 6.089844 C 13.421875 6.015625 13.203125 4.964844 12.988281 4.34375 C 12.429688 2.730469 11.539062 1.640625 10.253906 0.996094 C 9.351562 0.542969 8.886719 0.441406 7.746094 0.445312 C 6.953125 0.449219 6.71875 0.46875 6.339844 0.574219 C 4.503906 1.089844 2.820312 2.425781 1.792969 4.179688 C 0.902344 5.703125 0.449219 7.304688 0.382812 9.144531 C 0.335938 10.519531 0.515625 11.519531 1.003906 12.558594 C 1.710938 14.066406 3.09375 15.171875 4.625 15.453125 C 5.214844 15.558594 6.5 15.5625 7.140625 15.457031 Z M 4.921875 15.070312 C 4.425781 14.992188 3.675781 14.726562 3.261719 14.484375 C 2.796875 14.207031 1.933594 13.324219 1.644531 12.824219 C 0.867188 11.488281 0.613281 9.976562 0.859375 8.179688 C 1.121094 6.269531 1.773438 4.746094 2.941406 3.324219 C 3.90625 2.144531 5.027344 1.375 6.246094 1.046875 C 6.886719 0.875 8.300781 0.855469 8.917969 1.011719 C 10.105469 1.3125 11.277344 2.082031 11.855469 2.945312 C 12.269531 3.5625 12.660156 4.535156 12.847656 5.421875 L 12.886719 5.609375 L 11.042969 5.609375 L 10.945312 5.304688 C 10.75 4.691406 10.445312 4.195312 9.996094 3.742188 C 9.230469 2.96875 8.5625 2.71875 7.402344 2.761719 C 6.230469 2.804688 5.382812 3.210938 4.480469 4.164062 C 3.210938 5.503906 2.558594 7.207031 2.558594 9.167969 C 2.558594 10.242188 2.746094 10.941406 3.234375 11.699219 C 3.910156 12.746094 5.015625 13.316406 6.246094 13.246094 C 7.5 13.175781 8.507812 12.632812 9.460938 11.511719 L 9.910156 10.988281 L 11.898438 10.984375 L 11.730469 11.324219 C 10.84375 13.105469 9.171875 14.527344 7.453125 14.960938 C 6.890625 15.105469 5.527344 15.164062 4.921875 15.070312 Z M 15.128906 15.375 C 15.484375 13.171875 16.03125 11.28125 16.296875 9.46875 L 21.40625 9.421875 L 21.902344 6.566406 L 16.84375 6.53125 L 17.398438 3.503906 L 22.421875 3.519531 L 22.964844 0.777344 L 14.925781 0.730469 L 12.246094 15.351562 Z M 12.761719 14.808594 C 13.683594 10.027344 14.417969 5.695312 15.277344 1.238281 L 22.375 1.230469 L 22.011719 3.011719 L 16.921875 3.042969 L 16.164062 7.011719 L 21.273438 7.011719 L 21.007812 8.882812 L 15.890625 8.882812 L 14.6875 14.796875 C 14.046875 14.800781 13.40625 14.804688 12.761719 14.804688 C 12.796875 14.664062 12.761719 14.804688 12.761719 14.804688 Z M 29.171875 12.59375 L 24.203125 12.597656 L 24.816406 9.410156 L 29.886719 9.410156 C 29.980469 8.359375 30.292969 7.414062 30.292969 6.488281 L 25.335938 6.488281 L 25.882812 3.535156 L 30.921875 3.507812 L 31.457031 0.773438 L 23.390625 0.765625 L 20.710938 15.425781 C 23.355469 15.417969 26 15.40625 28.644531 15.398438 Z M 23.742188 1.230469 L 30.90625 1.289062 L 30.519531 3.097656 L 25.484375 3.128906 C 25.210938 4.472656 24.921875 5.84375 24.6875 7.011719 L 29.714844 7.042969 L 29.417969 8.882812 L 24.328125 8.910156 L 23.472656 13.039062 L 28.621094 13.035156 C 28.507812 13.671875 28.394531 14.226562 28.253906 14.898438 L 21.179688 14.898438 Z M 6.960938 12.238281 C 7.890625 11.992188 8.699219 11.351562 9.335938 10.351562 L 9.5625 9.992188 L 12.796875 9.992188 L 13.097656 8.3125 C 13.265625 7.390625 13.402344 6.613281 13.398438 6.589844 L 10.421875 6.582031 L 10.34375 6.15625 C 10.195312 5.339844 9.582031 4.433594 8.949219 4.050781 C 8.335938 3.679688 7.703125 3.601562 6.785156 3.796875 C 6.015625 3.957031 5.554688 4.21875 4.96875 4.84375 C 4.402344 5.4375 4.105469 5.875 3.855469 6.480469 C 3.175781 8.128906 3.164062 10.054688 3.828125 11.105469 C 4.179688 11.660156 4.796875 12.144531 5.308594 12.265625 C 5.851562 12.367188 6.4375 12.363281 6.960938 12.238281 Z M 22.390625 3.976562 L 17.742188 3.976562 L 17.375 6.035156 L 22.007812 6.050781 Z M 22.390625 3.976562 "/>
</g>
</svg>
